# xmcd
#
# Track frame offsets:
#	150
#	16612
#	35212
#	57224
#	71624
#	87899
#	109911
#	134436
#	153973
#	173660
#	191885
#	224585
#	238722
#	255972
#	267409
#	286121
#	298121
#	325946
#	346796
#
# Disc length: 4644 seconds
#
# Revision: 1
# Processed by: cddbd v1.5.2PL0 Copyright (c) Steve Scherf et al.
# Submitted via: EZCDAudioConverter 7.0.6.1
#
DISCID=1a122213
DTITLE=XTC - Black Sea
DYEAR=2017
DGENRE=
TTITLE0=Respectable Street
TTITLE1=Generals And Majors
TTITLE2=Living Through Another Cuba
TTITLE3=Love At First Sight
TTITLE4=Rocket From A Bottle
TTITLE5=No Language In Our Lungs
TTITLE6=Towers Of London
TTITLE7=Paper And Iron (Notes And Coins)
TTITLE8=Burning With Optimism's Flames
TTITLE9=Sgt. Rock (Is Going To Help Me)
TTITLE10=Travels In Nihilon
TTITLE11=Respectable Street [Single Version]
TTITLE12=Smokeless Zone
TTITLE13=Don't Lose Your Temper
TTITLE14=Take This Town
TTITLE15=Ban The Bomb
TTITLE16=Towers Of London [Early Version]
TTITLE17=The Somnambulist
TTITLE18=History Of Rock N' Roll
EXTD=
EXTT0=
EXTT1=
EXTT2=
EXTT3=
EXTT4=
EXTT5=
EXTT6=
EXTT7=
EXTT8=
EXTT9=
EXTT10=
EXTT11=
EXTT12=
EXTT13=
EXTT14=
EXTT15=
EXTT16=
EXTT17=
EXTT18=
PLAYORDER=
